<svg id="Layer_1" xmlns="http://www.w3.org/2000/svg" xmlns:xlink="http://www.w3.org/1999/xlink" viewBox="0 0 290 180"><defs><style>.cls-1{fill:url(#linear-gradient);}.cls-2{fill:url(#linear-gradient-2);}.cls-3{fill:url(#linear-gradient-3);}.cls-4{fill:url(#linear-gradient-4);}.cls-5{fill:url(#linear-gradient-5);}</style><linearGradient id="linear-gradient" x1="68.94" y1="-41.38" x2="220.06" y2="220.38" gradientUnits="userSpaceOnUse"><stop offset="0" stop-color="#fff" stop-opacity="0.15"/><stop offset="1" stop-color="#fff" stop-opacity="0"/></linearGradient><linearGradient id="linear-gradient-2" x1="220.5" y1="77.5" x2="220.5" y2="101.5" xlink:href="#linear-gradient"/><linearGradient id="linear-gradient-3" x1="220.5" y1="89.5" x2="220.5" y2="180.5" xlink:href="#linear-gradient"/><linearGradient id="linear-gradient-4" x1="171.5" y1="107.5" x2="171.5" y2="131.5" xlink:href="#linear-gradient"/><linearGradient id="linear-gradient-5" x1="171.5" y1="119.5" x2="171.5" y2="180.5" xlink:href="#linear-gradient"/></defs><rect x="-0.5" y="-0.5" width="291" height="181"/><rect class="cls-1" x="-1" y="-1" width="291" height="181"/><polygon class="cls-2" points="171.5 89.5 220.5 77.5 269.5 89.5 220.5 101.5 171.5 89.5"/><polygon class="cls-3" points="171.5 89.5 171.5 180.5 269.5 180.5 269.5 89.5 220.5 101.5 171.5 89.5"/><polygon class="cls-4" points="122.5 119.5 171.5 107.5 220.5 119.5 171.5 131.5 122.5 119.5"/><polygon class="cls-5" points="122.5 119.5 122.5 180.5 220.5 180.5 220.5 119.5 171.5 131.5 122.5 119.5"/></svg>
