<svg xmlns:xlink="http://www.w3.org/1999/xlink" viewBox="0 0 290 180" xmlns="http://www.w3.org/2000/svg">
    <linearGradient id="a" gradientUnits="userSpaceOnUse" x1="68.94" x2="220.06" y1="-41.38" y2="220.38">
        <stop offset="0" stop-color="#fff" stop-opacity=".15"/>
        <stop offset="1" stop-color="#fff" stop-opacity="0"/>
    </linearGradient>
    <linearGradient id="b" x1="220.5" x2="220.5" xlink:href="#a" y1="77.5" y2="101.5"/>
    <linearGradient id="c" x1="220.5" x2="220.5" xlink:href="#a" y1="89.5" y2="180.5"/>
    <linearGradient id="d" x1="171.5" x2="171.5" xlink:href="#a" y1="107.5" y2="131.5"/>
    <linearGradient id="e" x1="171.5" x2="171.5" xlink:href="#a" y1="119.5" y2="180.5"/>
    <path d="m-.5-.5h291v181h-291z"/>
    <path d="m-1-1h291v181h-291z" fill="url(#a)"/>
    <path d="m171.5 89.5 49-12 49 12-49 12z" fill="url(#b)"/>
    <path d="m171.5 89.5v91h98v-91l-49 12z" fill="url(#c)"/>
    <path d="m122.5 119.5 49-12 49 12-49 12z" fill="url(#d)"/>
    <path d="m122.5 119.5v61h98v-61l-49 12z" fill="url(#e)"/>
</svg>
