<?xml version="1.0" encoding="utf-8"?>
<!-- Generator: Adobe Illustrator 24.1.0, SVG Export Plug-In . SVG Version: 6.00 Build 0)  -->
<svg version="1.1" id="Layer_1" xmlns="http://www.w3.org/2000/svg" x="0px" y="0px"
     viewBox="0 0 290 180" style="enable-background:new 0 0 290 180;" xml:space="preserve">
<style type="text/css">
	.st0{fill:url(#SVGID_1_);}
	.st1{fill:url(#SVGID_2_);}
</style>
    <path d="M-0.5-0.5h291v181h-291V-0.5z"/>
    <linearGradient id="SVGID_1_" gradientUnits="userSpaceOnUse" x1="68.9409" y1="276.6215" x2="220.0591" y2="538.3785"
                    gradientTransform="matrix(1 0 0 1 0 -318)">
	<stop offset="0" style="stop-color:#FFFFFF;stop-opacity:0.15"/>
        <stop offset="1" style="stop-color:#FFFFFF;stop-opacity:0"/>
</linearGradient>
    <path class="st0" d="M-1-1h291v181H-1V-1z"/>
    <linearGradient id="SVGID_2_" gradientUnits="userSpaceOnUse" x1="201.7503" y1="111.1674" x2="201.7503" y2="-48.6094"
                    gradientTransform="matrix(1 0 0 -1 0 182)">
	<stop offset="0" style="stop-color:#FFFFFF;stop-opacity:0.15"/>
        <stop offset="1" style="stop-color:#FFFFFF;stop-opacity:5.000000e-02"/>
</linearGradient>
    <path class="st1" d="M266.5,125.3c-2.3,1.5-4.9,1.9-7.5,1.2c-2.7-0.5-4.8-2-6.3-4.4s-1.9-4.9-1.2-7.5c0.5-2.7,1.9-4.8,4.2-6.1
	c2.3-1.4,4.8-1.6,7.5-1.1c2.7,0.5,4.8,1.9,6.3,4.1s1.9,4.6,1.2,7.4C270.3,121.8,268.8,123.8,266.5,125.3 M260.2,163.3
	c-0.5,2.7-2,4.8-4.4,6.3c-2.3,1.5-4.9,1.9-7.5,1.2c-2.7-0.5-4.8-2-6.3-4.4c-1.5-2.3-1.9-4.9-1.4-7.7c0.7-2.7,2.2-4.6,4.5-6
	c2.3-1.2,4.8-1.6,7.5-1.1c2.7,0.7,4.8,2,6.3,4.2C260.4,158.1,260.8,160.6,260.2,163.3 M201.8,70.8c-44.1,0-79.9,35.8-79.9,79.9
	c0,21.5,8.5,41,22.3,55.3c2.3-0.5,4.6-1.2,7-1.9c5.9-1.8,11.1-4.1,15.7-7c11.9-7.8,21.9-17.1,29.8-28s13.7-24,17.2-39.6
	c0.8-3.6,1.5-7.7,1.8-12.4c0.4-4.8,0.1-9.4-0.8-13.9s-2.7-8.7-5.5-12.6c-2.7-3.8-6.8-6.3-12.3-7.7c-3.1-0.8-6.7-1-10.5-0.5
	s-7.5,1.4-11.1,2.7c-3.4,1.5-6.4,3.4-9.2,6c-2.6,2.5-4.1,5.5-4.6,9c0,0.5,0.4,0.7,1.1,0.7c0.7,0,1.6,0,3-0.1h4.8
	c1.9,0.1,4.1,0.5,6.4,1.2c2.6,0.7,4.5,2,6.1,4c1.5,1.9,2.6,4.1,3.1,6.7c0.7,2.5,0.8,5.1,0.5,7.8c-0.3,2.7-1.1,5.2-2.2,7.5
	c-1.9,3.7-4.4,6.3-7.4,7.9c-3.1,1.6-6.8,1.9-11.3,0.8c-2.9-0.7-5.5-1.9-7.8-3.6c-2.3-1.6-4.4-3.6-5.9-5.9c-1.5-2.3-2.6-4.9-3.1-7.8
	c-0.5-2.9-0.4-6.1,0.4-9.4c1.1-5.1,2.7-9.4,4.9-13c2.2-3.6,4.5-6.6,7-8.9s5.1-4.2,7.5-5.5c2.5-1.4,4.8-2.3,6.7-2.9
	c5.1-1.6,9.8-2.5,14.5-2.3s9,0.5,13,1.4c4.5,1.1,8.7,2.9,12.8,5.5c4.1,2.6,7.9,5.7,11.2,9.4c3.3,3.7,6,7.9,8.3,12.4
	c2.2,4.6,3.6,9.4,4.1,14.5c0.7,5.7,0.4,11.6-1.1,17.5c-1.4,5.9-3.7,12.2-7,18.7c-1.1,2.2-2,4.2-3.1,5.9c-1.1,1.8-2.2,3.4-3.3,4.9
	c-1.1,1.6-2.3,3.1-3.7,4.6c-1.4,1.5-2.7,3.3-4.4,5.1c-1.5,1.8-3,3.3-4.4,4.6c-1.4,1.4-2.9,2.7-4.2,4c-1.4,1.2-2.9,2.5-4.4,3.7
	c-1.5,1.2-3.3,2.5-5.2,3.8c-1.9,1.4-3.8,2.6-5.5,3.7c-1.6,1.1-3.4,2-5.1,3c-1.6,1-3.4,1.9-5.2,2.7c-1.8,0.8-3.8,1.8-6,2.7
	c-2.7,1.2-5.3,2.2-7.7,3s-4.6,1.5-7,2c-2.3,0.5-4.6,1-7.1,1.4c-1.2,0.1-2.5,0.3-3.7,0.5c13.7,11.1,31.2,17.8,50.1,17.8
	c44.1,0,79.9-35.8,79.9-79.9C281.5,106.6,245.9,70.8,201.8,70.8"/>
</svg>
