<svg viewBox="0 0 43.98 43.98" fill="currentColor" width="1em" height="1em">
    <path d="M21.99 0A22 22 0 006.13 37.22c.62-.16 1.26-.34 1.92-.53 1.6-.48 3.05-1.12 4.34-1.93 3.29-2.13 6.02-4.69 8.19-7.69a29.7 29.7 0 005.22-14.31c.1-1.31.02-2.59-.23-3.85a8.65 8.65 0 00-1.51-3.44 5.67 5.67 0 00-3.4-2.11 8.62 8.62 0 00-2.91-.15c-1.07.11-2.08.37-3.03.77-.95.4-1.79.94-2.5 1.64a4.11 4.11 0 00-1.27 2.48c0 .14.09.2.28.2l.83-.03c.36-.01.8-.01 1.33.02.52.03 1.12.14 1.79.34.7.21 1.26.57 1.68 1.1.42.53.71 1.14.88 1.83a6.21 6.21 0 01-.47 4.24c-.52 1-1.2 1.73-2.05 2.19-.85.46-1.88.54-3.1.24a6.6 6.6 0 01-2.15-.96 5.84 5.84 0 01-2.4-6.4 11.65 11.65 0 013.29-6.01 9.62 9.62 0 013.92-2.32c1.37-.45 2.7-.66 4-.63 1.29.03 2.49.16 3.59.39 1.22.3 2.41.8 3.55 1.51 1.14.71 2.17 1.57 3.08 2.6a15.06 15.06 0 012.28 3.43 13.6 13.6 0 01.83 8.81 24.44 24.44 0 01-1.9 5.14 17.3 17.3 0 01-1.76 3c-.31.44-.65.87-1.01 1.29l-1.19 1.4a26.53 26.53 0 01-5.04 4.46c-.54.38-1.04.72-1.5 1.01-.47.3-.93.57-1.38.84a24.27 24.27 0 01-3.11 1.49c-.76.32-1.47.59-2.12.81a20.8 20.8 0 01-3.89.91l-1.02.14a21.99 21.99 0 0035.79-17.11A22 22 0 0021.99 0zm16.09 25.44a2.55 2.55 0 01-1.19 1.73c-.65.4-1.34.52-2.08.33a2.58 2.58 0 01-1.73-1.19 2.8 2.8 0 01-.38-2.09 2.5 2.5 0 011.22-1.65 2.9 2.9 0 013.81.86c.42.6.54 1.27.35 2.01zm1.75-10.45c-.65.4-1.34.52-2.08.33a2.55 2.55 0 01-1.73-1.19 2.58 2.58 0 01-.33-2.08c.15-.75.54-1.31 1.18-1.68a2.71 2.71 0 012.07-.29c.75.15 1.33.53 1.74 1.14.41.61.53 1.29.35 2.03a2.6 2.6 0 01-1.2 1.74z" />
</svg>
