<svg viewBox="0 0 463.3 194.5" fill="currentColor" width="1rem">
    <path d="M151.4 57c-2.5 1.5-5.1 2-8 1.2-2.8-.5-5-2-6.5-4.5-1.6-2.4-2-5-1.3-7.9.6-2.8 2-5 4.5-6.4 2.4-1.4 5-1.8 7.9-1 2.8.5 5 2 6.6 4.3 1.6 2.3 2 4.9 1.3 7.7-.6 2.8-2 5-4.5 6.6m-6.7 39.7c-.5 2.8-2 5-4.5 6.6-2.5 1.5-5.1 2-8 1.3-2.8-.6-5-2.1-6.5-4.6-1.5-2.4-2-5-1.4-8a9.4 9.4 0 014.6-6.2c2.4-1.3 5-1.7 7.9-1.2 2.8.7 5 2.2 6.6 4.5a9 9 0 011.3 7.6M83.6 0a83.6 83.6 0 00-60.3 141.4c2.4-.6 4.8-1.2 7.3-2 6-1.8 11.6-4.2 16.5-7.3 12.5-8.1 22.9-17.9 31.1-29.3a112.9 112.9 0 0019.9-54.3c.4-5 0-9.9-1-14.7-.9-4.7-2.8-9-5.6-13-3-4-7.2-6.7-13-8-3.3-.9-7-1-11-.6s-8 1.4-11.5 2.9a30.4 30.4 0 00-9.5 6.2 15.8 15.8 0 00-4.9 9.4c0 .5.4.8 1.1.8l3.1-.1h5c2 .1 4.3.6 6.9 1.3 2.6.8 4.8 2.2 6.3 4.2 1.6 2 2.7 4.3 3.4 7a23.3 23.3 0 01-1.8 16 19 19 0 01-7.8 8.4c-3.2 1.7-7.1 2-11.8.9a24.7 24.7 0 01-14.3-9.9 22.4 22.4 0 01-3-18.1 43.9 43.9 0 0112.5-22.8 35.9 35.9 0 0115-8.8 45.9 45.9 0 0115.1-2.4 46.8 46.8 0 0127.1 7.2 53 53 0 0124.7 38c.7 6 .4 12.2-1.1 18.4a92.2 92.2 0 01-17.7 35.8l-4.6 5.3a115.4 115.4 0 01-13.6 12.9 167.3 167.3 0 01-16.5 11 73.7 73.7 0 01-11.8 5.7 107.8 107.8 0 01-15.3 5.2c-2.4.6-5 1-7.5 1.4l-3.9.5A83.6 83.6 0 1083.5 0M216.6 52a23.6 23.6 0 016.5-16.5c2.1-2 4.6-3.7 7.5-4.9a24.8 24.8 0 0114.3-1.3 27.7 27.7 0 017.2 2.4l2.4 1.4c.9.7 1.3 1.4 1.5 2.2a4 4 0 01-.8 2.6l-1.5 2.6c-.6 1-1.3 1.5-2.1 1.6-.8.1-1.7-.1-2.6-.7-1-.6-2.3-1.1-3.7-1.7a13 13 0 00-4.7-.8c-2.2 0-4.2.4-5.8 1a11.3 11.3 0 00-6.1 7 15.7 15.7 0 002.3 14c1 1.3 2.4 2.4 4 3.1 1.6.8 3.4 1.2 5.6 1.2 2 0 3.6-.3 5.2-1s2.9-1.5 4-2.2c2-1.4 3.6-1.2 4.8.6l1.8 2.5c.6.9.8 1.7.8 2.6 0 .8-.5 1.5-1.4 2.2a36 36 0 01-6 3.5 29.4 29.4 0 01-9.7 1.8 26 26 0 01-9.7-1.7 21.4 21.4 0 01-12.2-12.3 25 25 0 01-1.6-9.2M271.8 51.8c0 1.9.3 3.7 1 5.3.5 1.7 1.4 3 2.4 4.3 1.1 1.2 2.4 2 3.9 2.8 1.4.7 3 1 4.8 1a11.3 11.3 0 008.7-3.8 15.1 15.1 0 002.5-14.7c-.6-1.6-1.4-3-2.5-4.1s-2.3-2-3.8-2.7c-1.5-.7-3.1-1-4.9-1a11.9 11.9 0 00-8.7 3.7c-1 1.1-1.9 2.5-2.5 4a14 14 0 00-.9 5.2m-11.4 0c0-3.2.6-6.2 1.7-9a21.7 21.7 0 0112.3-12.2c2.9-1.2 6-1.7 9.5-1.7s6.7.6 9.6 1.7a22 22 0 0113.9 21.2c0 3.3-.6 6.4-1.7 9.2a22.3 22.3 0 01-12.2 12.4c-3 1.2-6.1 1.9-9.6 1.9-3.4 0-6.6-.7-9.5-1.9a22.4 22.4 0 01-14-21.6M329.5 50a6 6 0 004.2-1.4c1-1 1.5-2.4 1.5-4.2 0-1-.2-2-.5-2.9-.4-.8-1-1.4-2.1-1.8-1-.5-2.4-.7-4.2-.7h-3.7v11h4.8zm-15.8-17c0-2.2 1.2-3.4 3.5-3.4h12.2c2.3 0 4 .1 5.3.3 1.3.1 2.4.4 3.4.8 2.5 1 4.6 2.6 6 4.8a16.2 16.2 0 01.6 15.3c-.5 1.1-1.2 2.1-2 3a10 10 0 01-3 2.2v.1l.4.6.5.9.8 1.2 6.4 11.6c.7 1.2.8 2.2.3 3-.5.7-1.4 1.1-2.7 1.1h-4.8c-1.8 0-3.2-.8-4-2.4l-6.7-12.7h-5.2V71c0 2.3-1.1 3.4-3.4 3.4h-4.1c-2.3 0-3.5-1.1-3.5-3.4V33zM391.9 65a12 12 0 009-3.2c2.1-2.3 3.2-5.5 3.2-9.8 0-4.3-1.1-7.6-3.3-9.7a12.3 12.3 0 00-9-3.3h-4.5v26h4.6zm-15.6-32c0-2.2 1.2-3.4 3.5-3.4h12.5c3.5 0 6.7.5 9.5 1.5a19 19 0 0112 11.4c1 2.8 1.6 6 1.6 9.5a26 26 0 01-1.6 9.4 19.5 19.5 0 01-12 11.6c-2.8 1-6 1.5-9.5 1.5h-12.5c-2.3 0-3.5-1.1-3.5-3.4V33zM422 33c0-2.2 1-3.4 3.4-3.4h21.2c2.3 0 3.4 1.2 3.4 3.5v2.5c0 2.3-1.1 3.4-3.4 3.4h-13.7v8.2h10.2c2.3 0 3.5 1.1 3.5 3.4v2.5c0 2.3-1.2 3.5-3.5 3.5H433v8.5h14.6c2.3 0 3.4 1.1 3.4 3.4V71c0 2.3-1.1 3.5-3.4 3.5h-22.1c-2.3 0-3.5-1.2-3.5-3.5V33zM205.5 111.8a23.6 23.6 0 016.6-16.4c2-2.1 4.5-3.7 7.4-5a24.8 24.8 0 0114.3-1.3 29 29 0 017.3 2.4l2.3 1.4c1 .6 1.4 1.4 1.5 2.2.1.8-.1 1.7-.7 2.6l-1.6 2.6c-.6 1-1.3 1.5-2 1.6-.8.1-1.7-.1-2.7-.7-1-.6-2.3-1.2-3.7-1.7-1.4-.5-3-.8-4.6-.8-2.3 0-4.2.4-5.8 1a11.3 11.3 0 00-6.2 7 15.7 15.7 0 002.4 14c1 1.3 2.3 2.4 4 3.1 1.5.8 3.4 1.2 5.6 1.2 1.9 0 3.6-.4 5.2-1 1.5-.7 2.9-1.5 4-2.2 2-1.4 3.5-1.2 4.8.6l1.7 2.5c.6.8.9 1.7.8 2.5 0 .9-.5 1.6-1.3 2.3a36 36 0 01-6 3.5 29.4 29.4 0 01-9.7 1.8 26 26 0 01-9.8-1.7 21.4 21.4 0 01-12.1-12.3 25.2 25.2 0 01-1.7-9.2M272.3 116l-2.5-8.6-.6-2.4a58.3 58.3 0 00-1.2-5.4h-.2a429.8 429.8 0 01-1.8 7.8l-2.6 8.7h9zm-11-23.8c.5-1.9 1.8-2.8 3.8-2.8h5.6c2 0 3.3 1 4 2.8l13 38.1c.3 1.2.3 2.2-.2 3-.6.6-1.4 1-2.7 1h-4.1c-2 0-3.3-1-4-2.9l-1.8-6.5h-14l-1.9 6.5c-.5 2-1.8 2.9-3.8 2.9H251c-1.2 0-2.1-.4-2.6-1-.6-.8-.6-1.8-.2-3l13-38zM294.6 92.7c.2-2.2 1.4-3.3 3.6-3.3h5.7c2 0 3.2 1 3.8 2.8l5.6 16.2.8 2.3.7 2.4.8 2.7h.1l.8-2.7a81.2 81.2 0 011.5-4.7l5.6-16.2c.6-1.8 1.9-2.8 3.8-2.8h5.7c2.2 0 3.4 1.1 3.6 3.3l3 38c.1 1.1-.1 2-.7 2.7-.5.6-1.4.9-2.5.9h-4c-2.3 0-3.5-1.1-3.7-3.3l-1.1-17a36 36 0 010-7.5h-.1l-1 2.7-.7 2.5-.9 2.4-3.7 10.2c-.6 1.8-2 2.8-3.9 2.8h-3.5c-2 0-3.3-1-4-2.8l-3.7-10.2-.8-2.4-.8-2.5-.9-2.7h-.1a52.2 52.2 0 000 5v2.6l-1.2 16.9c-.2 2.2-1.3 3.3-3.5 3.3h-4.2c-1.1 0-2-.3-2.5-1-.6-.6-.8-1.5-.7-2.6l3.1-38zM364.7 124.9c1.6 0 2.7-.5 3.5-1.4.8-1 1.2-2 1.2-3.3s-.4-2.4-1.1-3.3c-.8-.9-2-1.3-3.6-1.3h-6.6v9.3h6.6zm-1-18.1c1.4 0 2.4-.4 3-1.3.7-.8 1-1.8 1-2.8 0-1-.3-2-1-2.7-.7-.8-1.7-1.2-3.2-1.2h-5.4v8h5.6zm-16.6-14c0-2.2 1.1-3.4 3.4-3.4h13c2.3 0 4.4.3 6.3.8 1.8.5 3.4 1.2 4.8 2.2a10.5 10.5 0 014.2 8.8 12 12 0 01-1.3 5.4 9.4 9.4 0 01-3.9 4v.2a9 9 0 015.5 4.2c.5.9 1 1.8 1.2 2.9a12.7 12.7 0 01-1 9.3c-1 1.7-2.3 3-3.8 4-1.6 1.1-3.4 1.9-5.5 2.4-2 .5-4.2.7-6.4.7h-13c-2.4 0-3.5-1.2-3.5-3.5v-38zM402.6 109.8a6 6 0 004.2-1.5c1-.9 1.5-2.3 1.5-4 0-1.2-.1-2.2-.5-3-.3-.8-1-1.4-2-1.8-1-.5-2.4-.7-4.2-.7h-3.7v11h4.7zm-15.7-17c0-2.2 1.1-3.4 3.4-3.4h12.2c2.3 0 4.1 0 5.4.3 1.3.1 2.4.4 3.3.8 2.6 1 4.6 2.5 6.1 4.8 1.5 2.2 2.2 5 2.2 8.2a16.3 16.3 0 01-1.6 7c-.6 1.2-1.3 2.2-2.1 3.1a10 10 0 01-3 2.2v.1l.4.6.6.9.7 1.2 6.4 11.6c.7 1.2.8 2.2.3 3-.4.7-1.4 1.1-2.7 1.1h-4.8c-1.8 0-3.1-.8-4-2.5l-6.7-12.6H398v11.6c0 2.3-1.2 3.5-3.5 3.5h-4c-2.4 0-3.5-1.2-3.5-3.5v-38zM447.6 116l-2.5-8.6-.6-2.4a58.3 58.3 0 00-1.2-5.4h-.1a429.8 429.8 0 01-1.9 7.8l-2.5 8.7h8.8zm-11-23.8c.6-1.9 1.9-2.8 3.8-2.8h5.7c2 0 3.2 1 3.9 2.8l13 38.1c.4 1.2.3 2.2-.2 3-.5.6-1.4 1-2.7 1H456c-2 0-3.3-1-3.9-2.9l-1.9-6.5h-14l-1.9 6.5c-.5 2-1.8 2.9-3.8 2.9h-4.1c-1.3 0-2.2-.4-2.7-1-.5-.8-.6-1.8-.2-3l13-38zM220.5 191.8c-.4-.5-.5-.9-.1-1.4l.4-.5c.4-.5.8-.5 1.3-.1l1 .6a12.8 12.8 0 003 1.4l2.1.3a6 6 0 004-1.3 4 4 0 001.4-3.3 4 4 0 00-1-2.7 8.8 8.8 0 00-2.4-1.8c-1-.6-2-1-3.2-1.5l-3.1-1.6a9 9 0 01-2.5-2.3c-.6-.8-1-2-1-3.3a6.6 6.6 0 012.5-5.2c.7-.6 1.6-1.1 2.6-1.4a10.3 10.3 0 015.4-.3l1.9.5 1.4.7 1 .6c.4.4.5.8.2 1.3l-.3.6c-.2.3-.4.4-.6.4-.3 0-.5 0-.8-.2-.4-.3-1-.7-2-1-.8-.5-1.8-.7-3-.7-.8 0-1.5.2-2.2.4-.6.2-1.2.4-1.7.8s-1 .9-1.3 1.4-.4 1.2-.4 1.9c0 1 .3 2 1 2.6a9 9 0 002.4 1.8c1 .5 2 1 3.2 1.4 1.1.4 2.2 1 3.2 1.6 1 .6 1.8 1.4 2.4 2.3.7 1 1 2 1 3.5a6.6 6.6 0 01-2.1 5.2 9 9 0 01-6 2.1 11.5 11.5 0 01-6.6-2l-1.1-.8M254 183.4l-3.5-9.6-.3-1a35.5 35.5 0 00-.6-2.5h-.1l-.4 1.3-.3 1.1-.3 1-3.6 9.7h9.1zm-6.1-15c.1-.6.5-.8 1-.8h1.2c.6 0 .9.3 1 .8l9.1 24.6c.2.7 0 1-.7 1h-.9c-.5 0-.9-.2-1-.7l-2.8-7.7h-10.6l-2.8 7.7c-.1.5-.5.8-1 .8h-.8c-.8 0-1-.4-.8-1.1l9-24.7zM264.7 168.5c0-.6.3-.9.9-.9h1c.4 0 .7.2 1 .6l13.1 18.4.8 1.2.7 1.1.7 1.3h.1a18.4 18.4 0 01-.2-2.4v-19.2c0-.7.3-1 1-1h.7c.6 0 .9.3.9 1V193c0 .7-.3 1-1 1h-.8c-.5 0-.9-.2-1.1-.6L269.3 175l-.7-1.1-.7-1.2a17 17 0 01-.7-1.3h-.1v1.3l.2 1.2V193c0 .7-.3 1-.9 1h-.8c-.6 0-.9-.4-.9-1v-24.6zM298.8 170h-8.6c-.6 0-.9-.4-.9-1v-.5c0-.6.3-.9 1-.9H310c.6 0 1 .3 1 1v.4c0 .6-.4 1-1 1h-8.6V193c0 .7-.3 1-1 1h-.7c-.6 0-.9-.3-.9-1V170zM326.5 180.7c0-2 .3-3.7 1-5.4a12.6 12.6 0 017-7.1 15.6 15.6 0 0113 1l1.2.8c.4.3.5.8.1 1.3l-.3.5c-.3.4-.8.5-1.3.1a15.4 15.4 0 00-2.7-1.4 12 12 0 00-4.6-1c-1.6 0-3 .4-4.4 1a10 10 0 00-5.5 5.8 13 13 0 000 8.8 10.7 10.7 0 005.6 6c1.3.7 2.8 1 4.4 1a11.2 11.2 0 005-1.1l1.7-1 1.2-.8c.4-.4.9-.3 1.2.1l.4.4c.4.5.3 1 0 1.4a12.4 12.4 0 01-3.4 2 16.7 16.7 0 01-6.2 1.4 12.6 12.6 0 01-12.4-8.4 15 15 0 01-1-5.4M354.6 168.5c0-.6.4-.9 1-.9h.7c.7 0 1 .3 1 1v16.2c0 2.3.7 4 2 5.4 1.4 1.2 3.2 1.9 5.5 1.9s4-.7 5.5-2a7 7 0 002-5.4v-16.2c0-.6.3-.9 1-.9h.7c.6 0 .9.3.9 1v16.3c0 1.4-.3 2.8-.7 4a8.9 8.9 0 01-5.3 5c-1.2.4-2.6.6-4 .6a12 12 0 01-4.2-.6 9 9 0 01-5.3-5c-.5-1.2-.8-2.6-.8-4v-16.4zM380.2 180.9a14.1 14.1 0 013.8-9.8 13 13 0 019.6-4 15.8 15.8 0 018.7 2.6c.5.4.5.8.1 1.3l-.3.4c-.4.5-.8.6-1.3.3a16.3 16.3 0 00-2.7-1.3 15.2 15.2 0 00-4.4-.8 10.8 10.8 0 00-7.8 3.2c-1 1-1.7 2.2-2.2 3.6a12.4 12.4 0 000 8.9c.5 1.3 1.3 2.5 2.2 3.5a9.8 9.8 0 007.5 3.3 10 10 0 003.6-.6 12 12 0 004.8-3.3v-4.5h-3.6c-.6 0-1-.3-1-.9v-.5c0-.6.4-.9 1-.9h5.1c.6 0 1 .3 1 1V193c0 .7-.4 1-1 1h-.5c-.6 0-1-.3-1-.9v-2-.3c-.6.7-1.4 1.3-2.2 1.8-.7.5-1.6.9-2.7 1.2a12.6 12.6 0 01-13-3.3 13.6 13.6 0 01-3.7-9.7M422.4 183.4l-3.5-9.6-.3-1a35.5 35.5 0 00-.7-2.5l-.4 1.3-.3 1.1-.4 1-3.5 9.7h9.1zm-6.2-15c.2-.6.5-.8 1-.8h1.3c.5 0 .9.3 1 .8l9 24.6c.3.7 0 1-.7 1h-.8c-.5 0-.9-.2-1-.7l-2.9-7.7h-10.5l-2.8 7.7c-.2.5-.5.8-1 .8h-.9c-.7 0-1-.4-.7-1.1l9-24.7zM436.7 170H428c-.6 0-.9-.4-.9-1v-.5c0-.6.3-.9 1-.9h19.7c.6 0 1 .3 1 1v.4c0 .6-.4 1-1 1h-8.6V193c0 .7-.3 1-1 1h-.7c-.6 0-.9-.3-.9-1V170z"/>
</svg>
